<svg width="1080" height="1080" viewBox="0 0 1080 1080" fill="none" xmlns="http://www.w3.org/2000/svg">
<rect width="1080" height="1080" fill="#F0DB4F"/>
<path d="M485.899 980C563.338 980 618.906 945.716 653.783 891.334L589.349 847.001C566.885 881.286 537.919 906.112 485.899 906.112C413.189 906.112 364.124 848.775 364.124 773.704C364.124 698.634 413.189 642.479 485.899 642.479C532.008 642.479 564.521 664.35 583.437 695.088L646.689 650.164C610.63 594.009 558.609 568 485.899 568C370.627 568 279 654.892 279 773.704C279 892.517 370.627 980 485.899 980Z" fill="#333333"/>
<path d="M715.169 974.68H980V901.974H797.929V572.729H715.169V974.68Z" fill="#333333"/>
</svg>
